# xmcd
#
# Track frame offsets:
#	150
#	15042
#	34335
#	49335
#	61177
#	76636
#	95660
#	109959
#	126391
#	145739
#	161523
#	179170
#	194899
#	207335
#	221687
#	237876
#	253362
#	271170
#	288582
#	308794
#	323606
#	341018
#
# Disc length: 4727 seconds
#
# Revision: 0
# Processed by: cddbd v1.5.1PL0 Copyright (c) Steve Scherf et al.
# Submitted via: dBpowerAMP V4.0
#
DISCID=50127516
DTITLE=Lourenço and Lourival - Leitão A Pururuca
DYEAR=2004
DGENRE=Sertanejo
TTITLE0=Juiz Ladrão
TTITLE1=Riozinho
TTITLE2=Se O Passado Voltasse
TTITLE3=Espinho Do Lençol
TTITLE4=Cruel Regresso
TTITLE5=Chico Viola Morreu
TTITLE6=Bebo Por Ela
TTITLE7=Leitão A Pururuca
TTITLE8=Menina Da Aldeia
TTITLE9=O Ipê E O Prisioneiro
TTITLE10=O Menino Do Cesto
TTITLE11=Saco De Ouro
TTITLE12=Só Filé
TTITLE13=O Retireiro
TTITLE14=Esperança Do Povo
TTITLE15=Um Ano De Saudade
TTITLE16=Casinha De Ouro
TTITLE17=A Canga Do Tempo
TTITLE18=Estrada Velha
TTITLE19=Sonho Cruel
TTITLE20=Como Eu Chorei
TTITLE21=Lembranças Que O Tempo Não Apaga
EXTD=
EXTT0=
EXTT1=
EXTT2=
EXTT3=
EXTT4=
EXTT5=
EXTT6=
EXTT7=
EXTT8=
EXTT9=
EXTT10=
EXTT11=
EXTT12=
EXTT13=
EXTT14=
EXTT15=
EXTT16=
EXTT17=
EXTT18=
EXTT19=
EXTT20=
EXTT21=
PLAYORDER=
